<svg xmlns="http://www.w3.org/2000/svg" viewBox="0 0 1200 900" role="img" aria-labelledby="title desc">
  <title id="title">덕앤플라워 농원 플레이스홀더</title>
  <desc id="desc">크림빛 하늘, 정돈된 밭, 창고와 화분 진열 라인을 차분한 색감으로 표현한 브랜드용 임시 이미지</desc>
  <defs>
    <linearGradient id="sky" x1="0" y1="0" x2="0" y2="1">
      <stop offset="0%" stop-color="#f8f2e8" />
      <stop offset="100%" stop-color="#efe5d6" />
    </linearGradient>
    <linearGradient id="field" x1="0" y1="0" x2="1" y2="1">
      <stop offset="0%" stop-color="#d7dfca" />
      <stop offset="100%" stop-color="#8da07a" />
    </linearGradient>
  </defs>
  <rect width="1200" height="900" rx="52" fill="#ebe1d0" />
  <rect x="56" y="56" width="1088" height="788" rx="38" fill="url(#sky)" />
  <ellipse cx="284" cy="178" rx="176" ry="78" fill="#f3e7cd" />
  <circle cx="920" cy="188" r="62" fill="#ead4a2" />
  <path d="M80 592C198 530 328 514 446 540C572 568 688 640 836 640C942 640 1038 602 1120 532V844H80V592Z" fill="#c7d2bb" />
  <path d="M80 670C210 618 332 612 446 638C604 676 718 754 880 754C974 754 1056 730 1120 694V844H80V670Z" fill="url(#field)" />
  <path d="M194 564H836" stroke="#657455" stroke-width="16" stroke-linecap="round" />
  <path d="M294 564V442" stroke="#657455" stroke-width="16" stroke-linecap="round" />
  <path d="M438 564V404" stroke="#657455" stroke-width="16" stroke-linecap="round" />
  <path d="M584 564V456" stroke="#657455" stroke-width="16" stroke-linecap="round" />
  <path d="M726 564V430" stroke="#657455" stroke-width="16" stroke-linecap="round" />
  <path d="M858 568C936 516 1010 500 1084 496V676H858V568Z" fill="#dac6ad" />
  <path d="M840 522 972 458 1102 522" fill="#8a684f" />
  <rect x="960" y="588" width="48" height="88" rx="10" fill="#b48359" />
  <path d="M210 720C278 696 338 690 404 704" stroke="#f4ecdf" stroke-width="10" stroke-linecap="round" opacity=".7" />
  <path d="M486 768C562 736 634 730 708 744" stroke="#e4dccf" stroke-width="10" stroke-linecap="round" opacity=".6" />
  <circle cx="264" cy="500" r="52" fill="#8eaa78" />
  <circle cx="336" cy="470" r="42" fill="#759463" />
  <circle cx="404" cy="510" r="48" fill="#a6be8d" />
  <circle cx="528" cy="494" r="38" fill="#648456" />
</svg>
