<svg xmlns="http://www.w3.org/2000/svg" viewBox="0 0 800 600" role="img" aria-labelledby="title desc">
  <title id="title">농원 전경 플레이스홀더</title>
  <desc id="desc">크림빛 하늘 아래 정돈된 밭과 식재 라인을 차분하게 표현한 임시 갤러리 이미지</desc>
  <rect width="800" height="600" fill="#f4ebdd" />
  <rect y="0" width="800" height="284" fill="#f7efe4" />
  <ellipse cx="184" cy="136" rx="132" ry="62" fill="#efe2ca" />
  <circle cx="602" cy="128" r="54" fill="#e6d19e" />
  <path d="M0 336C104 286 212 276 322 300C434 326 530 380 638 380C700 380 754 364 800 332V600H0V336Z" fill="#ccd7bf" />
  <path d="M0 408C112 370 216 366 322 392C458 426 556 484 680 484C728 484 770 474 800 456V600H0V408Z" fill="#90a57a" />
  <path d="M144 392H584" stroke="#627352" stroke-width="14" stroke-linecap="round" />
  <path d="M228 392V320" stroke="#627352" stroke-width="14" stroke-linecap="round" />
  <path d="M346 392V286" stroke="#627352" stroke-width="14" stroke-linecap="round" />
  <path d="M466 392V334" stroke="#627352" stroke-width="14" stroke-linecap="round" />
  <path d="M108 510C204 480 300 480 392 502" stroke="#ebe3d7" stroke-width="10" stroke-linecap="round" opacity=".7" />
</svg>
